<svg xmlns="http://www.w3.org/2000/svg" viewBox="0 0 32 32">
  <rect width="32" height="32" rx="7" fill="#1A3D2B"/>
  <g transform="translate(4.5, 2.5) scale(0.048)">
    <path d="M243 58.0429C243 78.8429 251.333 114.043 255.5 129.043L252.5 150.043C97.5 150.043 0 300.543 0 389.043C0 477.543 62.5 536.043 249 536.043C435.5 536.043 478.5 468.543 478 413.043C477.6 368.643 435.167 324.876 414 308.543C414.8 247.743 375.333 192.876 355.5 173.043L360.5 163.543C406 156.543 438 123.043 445.5 115.043C453 107.043 442 91.043 438 89.543C434.8 88.343 426.667 79.043 423 74.543C436.5 47.043 428 1.54219 389 0.0421851C357.8 -1.15781 323 23.5422 309.5 36.0422C308 30.5422 291.5 15.5429 276.5 15.0429C261.5 14.5429 243 32.0429 243 58.0429Z" fill="#FFCA28"/>
    <path d="M296 89.0424C295.5 82.0424 302.5 60.0424 309.5 41.0424C304 27.0424 291 21.0424 290 21.5424C289 22.0424 278.5 46.5424 281.5 75.5424C284.5 104.542 296.5 96.0424 296 89.0424Z" fill="#E2A610"/>
    <path d="M399 72.043C412.6 55.643 419.833 37.3763 420.5 25.043C427.5 41.543 427.5 62.043 426 66.043C424.5 70.043 424 78.043 433.5 85.043C443 92.043 448.637 100.551 449 108.543C449.5 119.543 433.5 131.043 412 145.043C394.8 156.243 373 161.543 357.5 165.043L335.5 137.543C351.667 124.043 385.4 88.443 399 72.043Z" fill="#E2A610"/>
    <path d="M388.079 280.795C392.828 290.294 405.078 301.462 412.578 307.796C412.578 249.296 390.578 235.796 383.078 247.296C375.578 258.796 383.579 271.794 388.079 280.795Z" fill="#E2A610"/>
    <path d="M357 154.043C364 165.543 366.5 183.043 361 179.043C355.5 175.043 327 160.543 287 154.043C247 147.543 254.167 150.71 243.5 150.543C243.5 140.043 254 121.043 289.5 121.043C325 121.043 350 142.543 357 154.043Z" fill="#6B4B46"/>
    <path d="M307.91 283.776C308.965 295.909 296.304 305.932 285.226 306.46C270.984 306.46 264.653 294.327 266.235 279.556C267.818 264.786 255.157 256.134 237.749 252.653C216.648 248.433 196.602 255.818 188.162 273.754C179.721 291.689 199.767 306.988 232.474 324.923C265.18 342.859 279.301 360.794 284.699 380.841C289.811 399.831 288 455.221 212.955 455.221C136.926 455.221 122.523 408.271 120.112 391.391C118.001 376.62 122.749 355.52 140.685 353.41C158.621 351.299 162.786 370.29 158.038 381.368C152.393 394.54 166.77 416.869 193.965 420.46C221.923 424.152 244.427 417.239 248.3 400.886C253.047 380.841 231.16 365.107 207.153 351.826C182.359 338.111 142.591 320.826 149.126 280.611C155.983 238.41 203.52 214.537 248.3 227.332C299.997 242.102 306.855 271.643 307.91 283.776Z" fill="#6B4B46"/>
    <path d="M270.983 200.428L249 194.543C236.59 220.543 212.428 268.479 200.823 329.144C190.771 381.69 181.832 433.418 176.029 477.378L201.878 480.543C206.45 442.913 215.066 387.171 226.144 332.309C237.692 275.118 256.213 235.245 270.983 200.428Z" fill="#6B4B46"/>
  </g>
</svg>
